<svg width="76" height="76" viewBox="0 0 76 76" fill="none" xmlns="http://www.w3.org/2000/svg">
<g id="Ellipse 3" filter="url(#filter0_d_1206_699)">
<mask id="path-1-inside-1_1206_699" fill="white">
<path d="M38 11C42.9445 11 47.778 12.4662 51.8893 15.2133C56.0005 17.9603 59.2048 21.8648 61.097 26.4329C62.9892 31.0011 63.4843 36.0277 62.5196 40.8773C61.555 45.7268 59.174 50.1814 55.6777 53.6777C52.1814 57.174 47.7268 59.555 42.8773 60.5196C38.0277 61.4843 33.0011 60.9892 28.4329 59.097C23.8648 57.2048 19.9603 54.0005 17.2133 49.8893C14.4662 45.778 13 40.9445 13 36H15.9973C15.9973 40.3517 17.2877 44.6057 19.7054 48.224C22.1231 51.8424 25.5595 54.6625 29.5799 56.3278C33.6004 57.9932 38.0244 58.4289 42.2925 57.5799C46.5606 56.7309 50.4811 54.6354 53.5583 51.5583C56.6354 48.4811 58.7309 44.5606 59.5799 40.2925C60.4289 36.0244 59.9932 31.6004 58.3279 27.5799C56.6625 23.5595 53.8424 20.1231 50.224 17.7054C46.6057 15.2877 42.3517 13.9973 38 13.9973V11Z"/>
</mask>
<path d="M38 11C42.9445 11 47.778 12.4662 51.8893 15.2133C56.0005 17.9603 59.2048 21.8648 61.097 26.4329C62.9892 31.0011 63.4843 36.0277 62.5196 40.8773C61.555 45.7268 59.174 50.1814 55.6777 53.6777C52.1814 57.174 47.7268 59.555 42.8773 60.5196C38.0277 61.4843 33.0011 60.9892 28.4329 59.097C23.8648 57.2048 19.9603 54.0005 17.2133 49.8893C14.4662 45.778 13 40.9445 13 36H15.9973C15.9973 40.3517 17.2877 44.6057 19.7054 48.224C22.1231 51.8424 25.5595 54.6625 29.5799 56.3278C33.6004 57.9932 38.0244 58.4289 42.2925 57.5799C46.5606 56.7309 50.4811 54.6354 53.5583 51.5583C56.6354 48.4811 58.7309 44.5606 59.5799 40.2925C60.4289 36.0244 59.9932 31.6004 58.3279 27.5799C56.6625 23.5595 53.8424 20.1231 50.224 17.7054C46.6057 15.2877 42.3517 13.9973 38 13.9973V11Z" stroke="#54DE43" stroke-width="6" shape-rendering="crispEdges" mask="url(#path-1-inside-1_1206_699)"/>
</g>
<defs>
<filter id="filter0_d_1206_699" x="0.2" y="0.2" width="75.6" height="75.6" filterUnits="userSpaceOnUse" color-interpolation-filters="sRGB">
<feFlood flood-opacity="0" result="BackgroundImageFix"/>
<feColorMatrix in="SourceAlpha" type="matrix" values="0 0 0 0 0 0 0 0 0 0 0 0 0 0 0 0 0 0 127 0" result="hardAlpha"/>
<feOffset dy="2"/>
<feGaussianBlur stdDeviation="6.4"/>
<feComposite in2="hardAlpha" operator="out"/>
<feColorMatrix type="matrix" values="0 0 0 0 0.32799 0 0 0 0 0.869445 0 0 0 0 0.260833 0 0 0 0.3 0"/>
<feBlend mode="normal" in2="BackgroundImageFix" result="effect1_dropShadow_1206_699"/>
<feBlend mode="normal" in="SourceGraphic" in2="effect1_dropShadow_1206_699" result="shape"/>
</filter>
</defs>
</svg>
