<svg width="105" height="105" viewBox="0 0 105 105" fill="none" xmlns="http://www.w3.org/2000/svg">
<g id="Group 29">
<g id="Rectangle 16">
<rect width="105" height="105" rx="5" fill="url(#paint0_radial_1132_293)"/>
<rect x="0.5" y="0.5" width="104" height="104" rx="4.5" stroke="white" stroke-opacity="0.1"/>
</g>
<circle id="Ellipse 1" opacity="0.1" cx="92" cy="13" r="5" fill="white"/>
<g id="Group">
<path id="Vector" d="M52 30C39.2976 30 29 40.2976 29 53C29 65.7024 39.2976 76 52 76C64.7024 76 75 65.7024 75 53C74.9856 40.3036 64.6964 30.0143 52 30ZM52 74.4667C40.1443 74.4667 30.5333 64.8557 30.5333 53C30.5333 41.1443 40.1443 31.5333 52 31.5333C63.8557 31.5333 73.4667 41.1443 73.4667 53C73.4532 64.8501 63.8501 74.4532 52 74.4667Z" fill="#DE3538"/>
<path id="Vector_2" d="M68.8667 52.2333H64.9944C64.6006 45.6505 59.3495 40.3995 52.7667 40.0056V36.1333C52.7667 35.7099 52.4234 35.3667 52 35.3667C51.5766 35.3667 51.2333 35.7099 51.2333 36.1333V40.0056C44.6505 40.3995 39.3995 45.6505 39.0056 52.2333H35.1333C34.7099 52.2333 34.3667 52.5766 34.3667 53C34.3667 53.4234 34.7099 53.7667 35.1333 53.7667H39.0056C39.3995 60.3495 44.6505 65.6006 51.2333 65.9944V69.8667C51.2333 70.2901 51.5766 70.6333 52 70.6333C52.4234 70.6333 52.7667 70.2901 52.7667 69.8667V65.9944C59.3495 65.6006 64.6006 60.3495 64.9944 53.7667H68.8667C69.2901 53.7667 69.6333 53.4234 69.6333 53C69.6333 52.5766 69.2901 52.2333 68.8667 52.2333ZM63.4611 52.2333H61.9277C61.5456 47.341 57.6589 43.4544 52.7667 43.0723V41.5389C58.5041 41.9286 63.0714 46.4959 63.4611 52.2333ZM51.2333 53.7667V55.1589C50.9126 55.0445 50.6213 54.8602 50.3805 54.6195C50.1398 54.3787 49.9555 54.0874 49.8411 53.7667H51.2333ZM49.8411 52.2333C49.9555 51.9126 50.1398 51.6213 50.3805 51.3805C50.6213 51.1398 50.9126 50.9555 51.2333 50.8411V52.2333H49.8411ZM52.7667 53.7667H54.1589C54.0445 54.0874 53.8602 54.3787 53.6195 54.6195C53.3787 54.8602 53.0874 55.0445 52.7667 55.1589V53.7667ZM52.7667 52.2333V50.8411C53.0874 50.9555 53.3787 51.1398 53.6195 51.3805C53.8602 51.6213 54.0445 51.9126 54.1589 52.2333H52.7667ZM51.2333 49.2433C50.4973 49.3949 49.8218 49.7589 49.2904 50.2904C48.7589 50.8218 48.3949 51.4973 48.2433 52.2333H46.6947C47.0364 49.8827 48.8827 48.0364 51.2333 47.6947V49.2433ZM48.2433 53.7667C48.3949 54.5027 48.7589 55.1782 49.2904 55.7097C49.8218 56.2411 50.4973 56.6051 51.2333 56.7567V58.3053C48.8827 57.9636 47.0364 56.1173 46.6947 53.7667H48.2433ZM52.7667 56.7567C53.5027 56.6051 54.1782 56.2411 54.7097 55.7097C55.2411 55.1782 55.6051 54.5027 55.7567 53.7667H57.3053C56.9636 56.1173 55.1173 57.9636 52.7667 58.3053V56.7567ZM55.7567 52.2333C55.6051 51.4973 55.2411 50.8218 54.7097 50.2904C54.1782 49.7589 53.5027 49.3949 52.7667 49.2433V47.6947C55.1173 48.0364 56.9636 49.8827 57.3053 52.2333H55.7567ZM51.2333 46.1452C48.0331 46.5073 45.5073 49.0331 45.1452 52.2333H43.6056C43.9803 48.1859 47.1859 44.9803 51.2333 44.6056V46.1452ZM45.1452 53.7667C45.5073 56.9669 48.0331 59.4928 51.2333 59.8548V61.3944C47.1859 61.0197 43.9803 57.8141 43.6056 53.7667H45.1452ZM52.7667 59.8548C55.9669 59.4928 58.4928 56.9669 58.8548 53.7667H60.3944C60.0197 57.8141 56.8141 61.0197 52.7667 61.3944V59.8548ZM58.8548 52.2333C58.4928 49.0331 55.9669 46.5073 52.7667 46.1452V44.6056C56.8141 44.9803 60.0197 48.1859 60.3944 52.2333H58.8548ZM51.2333 41.5389V43.0723C46.341 43.4544 42.4544 47.3411 42.0723 52.2333H40.5389C40.9286 46.4959 45.4959 41.9286 51.2333 41.5389ZM40.5389 53.7667H42.0723C42.4544 58.659 46.3411 62.5456 51.2333 62.9277V64.4611C45.4959 64.0714 40.9286 59.5041 40.5389 53.7667ZM52.7667 64.4611V62.9277C57.659 62.5456 61.5456 58.6589 61.9277 53.7667H63.4611C63.0714 59.5041 58.5041 64.0714 52.7667 64.4611Z" fill="#DE3538"/>
</g>
</g>
<defs>
<radialGradient id="paint0_radial_1132_293" cx="0" cy="0" r="1" gradientUnits="userSpaceOnUse" gradientTransform="translate(52.5 52.5) rotate(90) scale(52.5)">
<stop stop-color="white" stop-opacity="0.05"/>
<stop offset="1" stop-color="#999999" stop-opacity="0.05"/>
</radialGradient>
</defs>
</svg>
