<svg width="105" height="105" viewBox="0 0 105 105" fill="none" xmlns="http://www.w3.org/2000/svg">
<g id="Group 26">
<g id="Rectangle 11">
<rect width="105" height="105" rx="5" fill="url(#paint0_radial_1132_217)"/>
<rect x="0.5" y="0.5" width="104" height="104" rx="4.5" stroke="#54DE43" stroke-opacity="0.1"/>
</g>
<circle id="Ellipse 1" cx="92" cy="13" r="5" fill="#54DE43"/>
<g id="Group">
<path id="Vector" d="M36.3711 42.0063L37.9119 42.8868L39.4528 42.0063V34.6981C39.4528 32.6641 37.7887 31 35.7547 31H34.8742C34.7574 31 34.6455 31.0464 34.5629 31.1289C34.4803 31.2115 34.4339 31.3235 34.4339 31.4403V33.6855C34.4339 33.8023 34.4803 33.9143 34.5629 33.9968C34.6455 34.0794 34.7574 34.1258 34.8742 34.1258H35.8427C35.9882 34.1259 36.1276 34.1838 36.2304 34.2866C36.3332 34.3894 36.3911 34.5288 36.3912 34.6742L36.3711 42.0063Z" fill="#7E8A94"/>
<path id="Vector_2" d="M36.3711 42.0063L36.3913 34.6743C36.3913 34.3715 36.1448 34.1258 35.8428 34.1258H37.1635C37.4655 34.1258 37.7121 34.3715 37.7121 34.6743L37.6918 42.0063H36.3711ZM39.4528 42.0063H36.3711C35.8848 42.0063 35.4906 42.4005 35.4906 42.8868V49.5786L37.3836 50.4591L39.4528 49.5786L40.3333 45.7925L39.4528 42.0063Z" fill="#5F6C76"/>
<path id="Vector_3" d="M35.4906 49.5786V42.8868C35.4906 42.4008 35.885 42.0063 36.3711 42.0063H38.1321C37.6461 42.0063 37.2516 42.4008 37.2516 42.8868V49.5786H35.4906ZM39.4528 49.5786H36.0189C35.0463 49.5786 34.2579 50.367 34.2579 51.3396V57.7673L39.4528 56.8868L40.3333 53.2767L39.4528 49.5786Z" fill="#4F5A61"/>
<path id="Vector_4" d="M67.6289 42.0063L66.022 42.8868L64.5472 42.0063V34.6981C64.5472 32.6641 66.2113 31 68.2453 31H69.1258C69.2425 31 69.3545 31.0464 69.4371 31.1289C69.5196 31.2115 69.566 31.3235 69.566 31.4403V33.6855C69.566 33.8023 69.5196 33.9143 69.4371 33.9968C69.3545 34.0794 69.2425 34.1258 69.1258 34.1258H68.1572C68.0118 34.1259 67.8724 34.1838 67.7696 34.2866C67.6668 34.3894 67.6089 34.5288 67.6088 34.6742L67.6289 42.0063Z" fill="#7E8A94"/>
<path id="Vector_5" d="M64.4591 42.0063H67.5409C68.0272 42.0063 68.4214 42.4005 68.4214 42.8868V49.5786L66.6163 50.4591L64.5472 49.5786L63.6226 45.793L64.4591 42.0063Z" fill="#5F6C76"/>
<path id="Vector_6" d="M64.5471 49.5786H67.9811C68.9537 49.5786 69.7421 50.367 69.7421 51.3396V57.7673L64.5471 56.8868L63.6666 53.2327L64.5471 49.5786Z" fill="#4F5A61"/>
<path id="Vector_7" d="M39.4528 38.4843H64.5471V55.3459H39.4528V38.4843Z" fill="#D82F3D"/>
<path id="Vector_8" d="M39.4528 53.5849H64.5471V55.3459H39.4528V53.5849Z" fill="#C42330"/>
<path id="Vector_9" d="M41.39 70.3585V73C41.39 73.9726 40.6016 74.761 39.6289 74.761H36.4591C35.4865 74.761 34.6981 73.9726 34.6981 73V70.3585H41.39ZM69.3019 70.3585V73C69.3019 73.9726 68.5135 74.761 67.5409 74.761H64.3711C63.3985 74.761 62.6101 73.9726 62.6101 73V70.3585H69.3019Z" fill="#5F6C76"/>
<path id="Vector_10" d="M38.2201 74.761H36.4591C35.4862 74.761 34.6981 73.9729 34.6981 73V70.3585H36.4591V73C36.4591 73.9729 37.2472 74.761 38.2201 74.761ZM66.1321 74.761H64.3711C63.3981 74.761 62.6101 73.9729 62.6101 73V70.3585H64.3711V73C64.3711 73.9729 65.1591 74.761 66.1321 74.761Z" fill="#4F5A61"/>
<path id="Vector_11" d="M61.2893 55.2035H65.7798C68.6976 55.2035 71.0629 57.5688 71.0629 60.4865V66.3082H61.2893L60.4088 60.7558L61.2893 55.2035Z" fill="#D82F3D"/>
<path id="Vector_12" d="M71.5332 70.607L62.61 72.1195H61.7295L60.4088 71.8553L58.6478 72.1195H45.3522L44.0314 71.8553L42.2704 72.1195H41.3899L32.4667 70.607C31.6198 70.4635 31 69.7299 31 68.8709V67.1887C31 66.7024 31.3942 66.3082 31.8805 66.3082H42.7107L52.044 64.9884L61.2893 66.3082H72.1195C72.6058 66.3082 73 66.7024 73 67.1887V68.8709C73 69.7299 72.3802 70.4635 71.5332 70.607Z" fill="#D82F3D"/>
<path id="Vector_13" d="M72.9991 67.1464C72.9824 67.9899 72.3678 68.704 71.5331 68.8457L62.6466 70.3523C62.6223 70.3564 62.5976 70.3584 62.573 70.3584H41.427C41.4023 70.3584 41.3777 70.3563 41.3534 70.3523L33.1276 68.9578C33.0251 68.9404 32.932 68.8873 32.8649 68.8079C32.7978 68.7284 32.761 68.6277 32.761 68.5237V67.1886C32.761 66.7026 33.1555 66.3081 33.6415 66.3081H31.8805C31.405 66.3081 31.0182 66.6859 31.0016 67.1573C31.0015 67.1536 31.001 67.1501 31.0009 67.1464C31 67.1605 31 67.1746 31 67.1886V68.8704C31 69.7298 31.6199 70.4632 32.4669 70.6067L41.3534 72.1133C41.3777 72.1174 41.4023 72.1195 41.427 72.1195H42.2704L43.8713 71.8553L45.3522 72.1195H58.6478L60.2262 71.8553L61.7295 72.1195H62.573C62.5976 72.1195 62.6223 72.1173 62.6466 72.1133L71.5331 70.6067C72.3801 70.4632 73 69.7298 73 68.8704V67.1886C73 67.1746 73 67.1605 72.9991 67.1464Z" fill="#C42330"/>
<path id="Vector_14" d="M42.7107 55.2138L38.2724 55.1786C35.3344 55.1496 32.9371 57.5232 32.9371 60.4614V66.3082H42.7107V55.2138Z" fill="#D82F3D"/>
<path id="Vector_15" d="M39.1632 55.1918C36.4257 55.3846 34.2579 57.6678 34.2579 60.4616V66.3082H32.9371V60.4616C32.9371 57.5921 35.2238 55.2605 38.0669 55.1812L39.1632 55.1918Z" fill="#C42330"/>
<path id="Vector_16" d="M62.1698 59.2641H67.5409C68.0272 59.2641 68.4214 59.6583 68.4214 60.1446V62.3459C68.4214 62.8322 68.0272 63.2264 67.5409 63.2264H62.1698L61.2893 61.2453L62.1698 59.2641Z" fill="#F3D333"/>
<path id="Vector_17" d="M64.8113 63.2264H62.1698L61.2893 61.2453L62.1698 59.2641H64.8113C64.3253 59.2641 63.9308 59.6586 63.9308 60.1446V62.3459C63.9308 62.8319 64.3253 63.2264 64.8113 63.2264Z" fill="#E8A42B"/>
<path id="Vector_18" d="M41.8302 63.2264H36.4591C35.9728 63.2264 35.5786 62.8322 35.5786 62.3459V60.1446C35.5786 59.6583 35.9728 59.2641 36.4591 59.2641H41.8302L42.7107 61.2453L41.8302 63.2264Z" fill="#F3D333"/>
<path id="Vector_19" d="M38.2201 63.2264H36.4591C35.9731 63.2264 35.5786 62.8319 35.5786 62.3459V60.1446C35.5786 59.6586 35.9731 59.2641 36.4591 59.2641H38.2201C37.7341 59.2641 37.3396 59.6586 37.3396 60.1446V62.3459C37.3396 62.8319 37.7341 63.2264 38.2201 63.2264Z" fill="#E8A42B"/>
<path id="Vector_20" d="M61.2893 47.8176H42.7107C42.2244 47.8176 41.8302 47.4234 41.8302 46.9371V42.0063C41.8302 41.52 42.2244 41.1258 42.7107 41.1258H61.2893C61.7756 41.1258 62.1698 41.52 62.1698 42.0063V46.9371C62.1698 47.4234 61.7756 47.8176 61.2893 47.8176Z" fill="#F5FAFF"/>
<path id="Vector_21" d="M62.1698 46.9371V46.4969H44.0314C43.5454 46.4969 43.1509 46.1024 43.1509 45.6164V41.1258H42.7107C42.2246 41.1258 41.8302 41.5203 41.8302 42.0063V46.9371C41.8302 47.4231 42.2246 47.8176 42.7107 47.8176H61.2893C61.7753 47.8176 62.1698 47.4231 62.1698 46.9371Z" fill="#D7E1F2"/>
<path id="Vector_22" d="M64.5471 38.4843L62.735 33.3498C62.4924 32.6627 62.0428 32.0677 61.4479 31.6468C60.8531 31.226 60.1424 31 59.4137 31H44.5862C43.8576 31 43.1468 31.226 42.552 31.6469C41.9572 32.0677 41.5075 32.6627 41.265 33.3498L39.4528 38.4843H64.5471Z" fill="#D82F3D"/>
<path id="Vector_23" d="M64.5471 38.4843H39.4528L40.0744 36.7233H63.9255L64.5471 38.4843ZM58.3836 31V32.761C58.3836 33.7336 57.5952 34.522 56.6226 34.522H47.3773C46.4047 34.522 45.6163 33.7336 45.6163 32.761V31H58.3836Z" fill="#C42330"/>
<path id="Vector_24" d="M44.9119 69.0377H42.7107C42.5939 69.0377 42.4819 69.0841 42.3994 69.1667C42.3168 69.2492 42.2704 69.3612 42.2704 69.478V72.1195H45.3522V69.478C45.3522 69.3612 45.3058 69.2492 45.2232 69.1667C45.1407 69.0841 45.0287 69.0377 44.9119 69.0377ZM61.2893 69.0377H59.088C58.9713 69.0377 58.8593 69.0841 58.7767 69.1667C58.6942 69.2492 58.6478 69.3612 58.6478 69.478V72.1195H61.7295V69.478C61.7295 69.3612 61.6831 69.2492 61.6006 69.1667C61.518 69.0841 61.406 69.0377 61.2893 69.0377Z" fill="#F3D333"/>
<path id="Vector_25" d="M44.0314 69.0377C43.7884 69.0377 43.5912 69.235 43.5912 69.478V72.1195H42.2704V69.478C42.2704 69.235 42.4677 69.0377 42.7107 69.0377H44.0314ZM60.4088 69.0377C60.1658 69.0377 59.9685 69.235 59.9685 69.478V72.1195H58.6478V69.478C58.6478 69.235 58.845 69.0377 59.088 69.0377H60.4088Z" fill="#E8A42B"/>
<path id="Vector_26" d="M41.8302 65.8679V54.8616C41.8302 52.4302 43.8013 50.4591 46.2327 50.4591H57.7673C60.1987 50.4591 62.1698 52.4302 62.1698 54.8616V65.8679C62.1698 65.9847 62.1234 66.0966 62.0408 66.1792C61.9583 66.2618 61.8463 66.3082 61.7295 66.3082H42.2704C42.1537 66.3082 42.0417 66.2618 41.9591 66.1792C41.8766 66.0966 41.8302 65.9847 41.8302 65.8679Z" fill="#C42330"/>
<path id="Vector_27" d="M59.5283 61.4654V55.3019C59.5283 54.0862 58.5427 53.1006 57.327 53.1006H46.673C45.4572 53.1006 44.4717 54.0862 44.4717 55.3019V61.4654C44.4717 62.6811 45.4572 63.6666 46.673 63.6666H57.327C58.5427 63.6666 59.5283 62.6811 59.5283 61.4654Z" fill="#5F6C76"/>
<g id="Group_2">
<path id="Vector_28" d="M56.9748 56.4025H47.1132C46.7485 56.4025 46.4528 56.1069 46.4528 55.7421C46.4528 55.3773 46.7485 55.0818 47.1132 55.0818H56.9748C57.3395 55.0818 57.6352 55.3773 57.6352 55.7421C57.6352 56.1069 57.3395 56.4025 56.9748 56.4025ZM56.9748 59.044H47.1132C46.7485 59.044 46.4528 58.7484 46.4528 58.3836C46.4528 58.0188 46.7485 57.7233 47.1132 57.7233H56.9748C57.3395 57.7233 57.6352 58.0188 57.6352 58.3836C57.6352 58.7484 57.3395 59.044 56.9748 59.044ZM56.9748 61.6855H47.1132C46.7485 61.6855 46.4528 61.3899 46.4528 61.0251C46.4528 60.6604 46.7485 60.3648 47.1132 60.3648H56.9748C57.3395 60.3648 57.6352 60.6604 57.6352 61.0251C57.6352 61.3899 57.3395 61.6855 56.9748 61.6855Z" fill="#4F5A61"/>
</g>
</g>
</g>
<defs>
<radialGradient id="paint0_radial_1132_217" cx="0" cy="0" r="1" gradientUnits="userSpaceOnUse" gradientTransform="translate(52.5 52.5) rotate(90) scale(52.5)">
<stop stop-color="#54DE43" stop-opacity="0.2"/>
<stop offset="1" stop-color="#54DE43" stop-opacity="0.1"/>
</radialGradient>
</defs>
</svg>
