<svg width="105" height="105" viewBox="0 0 105 105" fill="none" xmlns="http://www.w3.org/2000/svg">
<g id="Group 24">
<g id="Rectangle 11">
<rect width="105" height="105" rx="5" fill="url(#paint0_radial_1132_152)"/>
<rect x="0.5" y="0.5" width="104" height="104" rx="4.5" stroke="#54DE43" stroke-opacity="0.1"/>
</g>
<circle id="Ellipse 1" cx="92" cy="13" r="5" fill="#54DE43"/>
<g id="Group">
<path id="Vector" d="M69.4355 37.619V40.0001L75.4839 41.5919V37.619H69.4355Z" fill="#5D5360"/>
<path id="Vector_2" d="M60.9677 39.9999H75.4838V43.5713H60.9677V39.9999Z" fill="#B6B1B7"/>
<path id="Vector_3" d="M77.9032 48.3333C71.2224 48.3333 65.8064 53.6632 65.8064 60.2382C65.8064 66.813 71.2224 72.143 77.9032 72.143C84.5841 72.143 90 66.8128 90 60.238C90 53.6632 84.5841 48.3333 77.9032 48.3333ZM77.9032 67.381C73.8947 67.381 70.6452 64.1831 70.6452 60.2382C70.6452 56.2932 73.8947 53.0954 77.9032 53.0954C81.9118 53.0954 85.1612 56.2932 85.1612 60.2382C85.1614 64.1829 81.9118 67.381 77.9032 67.381Z" fill="#5D5360"/>
<path id="Vector_4" d="M77.9032 68.5714C73.2346 68.5714 69.4355 64.8333 69.4355 60.2382C69.4355 55.6431 73.2346 51.9049 77.9032 51.9049C82.5718 51.9049 86.3709 55.6431 86.3709 60.2382C86.3709 64.8333 82.5718 68.5714 77.9032 68.5714ZM77.9032 54.2857C74.5683 54.2857 71.8549 56.9561 71.8549 60.238C71.8549 63.52 74.5683 66.1904 77.9032 66.1904C81.2381 66.1904 83.9515 63.52 83.9515 60.238C83.9517 56.9561 81.2381 54.2857 77.9032 54.2857Z" fill="#E5646E"/>
<path id="Vector_5" d="M77.9032 63.8094C79.9075 63.8094 81.5322 62.2105 81.5322 60.238C81.5322 58.2656 79.9075 56.6666 77.9032 56.6666C75.899 56.6666 74.2742 58.2656 74.2742 60.238C74.2742 62.2105 75.899 63.8094 77.9032 63.8094Z" fill="#857E87"/>
<path id="Vector_6" d="M77.9031 61.4292C77.6548 61.429 77.4126 61.3537 77.2093 61.2134C77.006 61.0731 76.8515 60.8747 76.7667 60.645L71.5394 46.4982C71.3102 45.8803 71.6351 45.1973 72.2623 44.9723C72.4116 44.9187 72.5701 44.8947 72.7289 44.9015C72.8876 44.9083 73.0434 44.9459 73.1873 45.0121C73.3313 45.0782 73.4606 45.1716 73.5678 45.287C73.6751 45.4024 73.7581 45.5374 73.8123 45.6844L79.0396 59.8312C79.2688 60.4491 78.9439 61.1321 78.3167 61.3571C78.1795 61.4059 78.0402 61.4292 77.9031 61.4292Z" fill="#B6B1B7"/>
<path id="Vector_7" d="M40.14 58.8762L46.7653 50.1417L53.8609 57.2619L47.7284 60.6198L40.14 58.8762Z" fill="#9B959D"/>
<path id="Vector_8" d="M48.871 41.1904H39.7281C39.1838 41.1904 38.6465 41.0699 38.156 40.8379C37.6655 40.6059 37.2343 40.2683 36.8943 39.85L34.598 37.0252C34.1447 36.4676 33.5697 36.0174 32.9157 35.708C32.2616 35.3987 31.5453 35.2381 30.8196 35.2381H26.2292C25.3355 35.2381 24.9519 36.3541 25.6619 36.8883L58.0948 61.2799V53.9881L48.871 41.1904Z" fill="#DB4655"/>
<path id="Vector_9" d="M48.871 42.3809H39.7276C38.2497 42.3809 36.8735 41.7293 35.9498 40.5935C35.7529 40.3465 35.6632 40.033 35.7 39.7212C35.7368 39.4094 35.8972 39.1245 36.1463 38.9286C36.3955 38.7326 36.7131 38.6413 37.0303 38.6746C37.3474 38.7079 37.6384 38.8631 37.8398 39.1065C38.0656 39.3859 38.3527 39.6115 38.6796 39.7662C39.0065 39.9209 39.3648 40.0009 39.7276 40H48.871C49.5397 40 50.0807 40.5331 50.0807 41.1904C50.0807 41.8478 49.5396 42.3809 48.871 42.3809ZM27.0968 48.3334C20.416 48.3334 15 53.6632 15 60.238C15 66.8129 20.416 72.1428 27.0968 72.1428C33.7777 72.1428 39.1937 66.8129 39.1937 60.238C39.1935 53.6632 33.7777 48.3334 27.0968 48.3334ZM27.0968 67.381C23.0883 67.381 19.8388 64.1831 19.8388 60.2382C19.8388 56.2933 23.0883 53.0954 27.0968 53.0954C31.1054 53.0954 34.3548 56.2933 34.3548 60.2382C34.3548 64.183 31.1054 67.381 27.0968 67.381Z" fill="#5D5360"/>
<path id="Vector_10" d="M27.0969 68.5714C22.4283 68.5714 18.6292 64.8333 18.6292 60.2382C18.6292 55.6431 22.4283 51.9049 27.0969 51.9049C31.7655 51.9049 35.5645 55.6431 35.5645 60.2382C35.5645 64.8333 31.7655 68.5714 27.0969 68.5714ZM27.0969 54.2857C23.762 54.2857 21.0485 56.9561 21.0485 60.238C21.0485 63.52 23.762 66.1904 27.0969 66.1904C30.4317 66.1904 33.1452 63.52 33.1452 60.238C33.1452 56.9561 30.4317 54.2857 27.0969 54.2857Z" fill="#E5646E"/>
<path id="Vector_11" d="M27.0968 63.8094C29.1011 63.8094 30.7258 62.2105 30.7258 60.238C30.7258 58.2656 29.1011 56.6666 27.0968 56.6666C25.0926 56.6666 23.4678 58.2656 23.4678 60.238C23.4678 62.2105 25.0926 63.8094 27.0968 63.8094Z" fill="#857E87"/>
<path id="Vector_12" d="M36.8181 54.5497C36.5377 54.3963 36.2068 54.3589 35.8983 54.4457C35.5898 54.5325 35.3289 54.7363 35.1731 55.0123L33.9982 57.0941C33.8424 57.3701 33.8044 57.6957 33.8925 57.9993C33.9807 58.3028 34.1878 58.5595 34.4682 58.7128L46.2626 65.2976L47.7284 60.6196L36.8181 54.5497Z" fill="#DAD8DB"/>
<path id="Vector_13" d="M82.2475 43.3169L73.6004 32.8571C72.7558 32.8571 72.1711 33.6874 72.4678 34.4657L74.2581 39.164C74.8512 40.7205 73.682 42.3809 71.9927 42.3809H64.5967V41.1904C64.5967 38.5605 62.4304 36.4285 59.7581 36.4285H54.6853C52.4877 36.4285 50.3556 37.1645 48.6396 38.5155L47.0684 39.7526C46.0499 40.5544 45.8606 42.0066 46.6405 43.0355L48.7312 45.7933L52.0118 46.7818L51.685 49.6898L55.2752 54.4258L52.2983 55.1786L44.8489 60.0921L45.957 64.9937H63.9746L66.1153 63.8094C66.1906 63.5991 66.2457 63.3824 66.28 63.162L67.3038 56.6134C67.5801 54.8453 68.357 53.1895 69.5453 51.8358C70.7336 50.482 72.2853 49.485 74.0227 48.9589L80.918 46.871C82.4445 46.4087 83.105 44.6432 82.2475 43.3169Z" fill="#E5646E"/>
<path id="Vector_14" d="M52.4999 60.238C54.5042 60.238 56.1289 58.639 56.1289 56.6666C56.1289 54.6942 54.5042 53.0952 52.4999 53.0952C50.4957 53.0952 48.8709 54.6942 48.8709 56.6666C48.8709 58.639 50.4957 60.238 52.4999 60.238Z" fill="#B6B1B7"/>
<path id="Vector_15" d="M76.1969 33.9598C75.9783 33.6219 75.6767 33.3437 75.3199 33.1509C74.9631 32.9582 74.5626 32.8571 74.1556 32.8571H73.6003L77.1729 39.4516C77.9397 40.8671 79.1685 41.9874 80.6611 42.632L82.2474 43.3171L76.1969 33.9598Z" fill="#DAD8DB"/>
<path id="Vector_16" d="M69.4354 40C70.1035 40 70.6451 39.467 70.6451 38.8095C70.6451 38.152 70.1035 37.619 69.4354 37.619C68.7674 37.619 68.2258 38.152 68.2258 38.8095C68.2258 39.467 68.7674 40 69.4354 40Z" fill="#4B3F4E"/>
<path id="Vector_17" d="M52.4479 43.2679L48.7311 45.7931L51.685 49.6898L54.9449 47.3645C55.1469 47.2203 55.39 47.1427 55.6395 47.1428H62.1775C63.5138 47.1428 64.5969 46.0767 64.5969 44.7618V42.3809H55.2604C54.2519 42.3809 53.2686 42.691 52.4479 43.2679Z" fill="#DAD8DB"/>
<path id="Vector_18" d="M48.9804 63.8096C48.3065 63.8096 47.6458 63.6249 47.0725 63.2762C46.4992 62.9275 46.0359 62.4285 45.7345 61.8353L44.8488 60.0921L44.5926 60.2611C43.5809 60.9284 43.2308 62.2317 43.7754 63.3039L44.2389 64.2161C44.5403 64.8094 45.0036 65.3083 45.5769 65.6571C46.1502 66.0058 46.8109 66.1905 47.4848 66.1905H62.6931C64.2538 66.1905 65.6117 65.2132 66.1153 63.8096H48.9804Z" fill="#DB4655"/>
<path id="Vector_19" d="M52.5 57.8571C53.1681 57.8571 53.7097 57.3241 53.7097 56.6666C53.7097 56.0092 53.1681 55.4762 52.5 55.4762C51.8319 55.4762 51.2903 56.0092 51.2903 56.6666C51.2903 57.3241 51.8319 57.8571 52.5 57.8571Z" fill="#DAD8DB"/>
</g>
</g>
<defs>
<radialGradient id="paint0_radial_1132_152" cx="0" cy="0" r="1" gradientUnits="userSpaceOnUse" gradientTransform="translate(52.5 52.5) rotate(90) scale(52.5)">
<stop stop-color="#54DE43" stop-opacity="0.2"/>
<stop offset="1" stop-color="#54DE43" stop-opacity="0.1"/>
</radialGradient>
</defs>
</svg>
