<svg width="106" height="105" viewBox="0 0 106 105" fill="none" xmlns="http://www.w3.org/2000/svg">
<g id="Group 25">
<g id="Rectangle 12">
<rect width="106" height="105" rx="5" fill="url(#paint0_radial_1132_175)"/>
<rect x="0.5" y="0.5" width="105" height="104" rx="4.5" stroke="white" stroke-opacity="0.1"/>
</g>
<g id="Group">
<path id="Vector" d="M69.8029 57.375V69.5625C69.8029 70.209 70.0598 70.829 70.5169 71.2861C70.974 71.7432 71.594 72 72.2404 72H79.5529C80.1994 72 80.8194 71.7432 81.2765 71.2861C81.7336 70.829 81.9904 70.209 81.9904 69.5625V57.375C81.9904 56.7285 81.7336 56.1085 81.2765 55.6514C80.8194 55.1943 80.1994 54.9375 79.5529 54.9375H72.2404C71.594 54.9375 70.974 55.1943 70.5169 55.6514C70.0598 56.1085 69.8029 56.7285 69.8029 57.375Z" fill="#333333"/>
<path id="Vector_2" d="M79.5529 71.3906H72.2404C71.594 71.3906 70.974 71.1338 70.5169 70.6767C70.0598 70.2196 69.8029 69.5996 69.8029 68.9531V69.5625C69.8029 70.209 70.0598 70.829 70.5169 71.2861C70.974 71.7432 71.594 72 72.2404 72H79.5529C80.1994 72 80.8194 71.7432 81.2765 71.2861C81.7336 70.829 81.9904 70.209 81.9904 69.5625V68.9531C81.9904 69.5996 81.7336 70.2196 81.2765 70.6767C80.8194 71.1338 80.1994 71.3906 79.5529 71.3906Z" fill="black" fill-opacity="0.12549"/>
<path id="Vector_3" d="M23.4905 57.375V69.5625C23.4905 70.209 23.7473 70.829 24.2044 71.2861C24.6616 71.7432 25.2815 72 25.928 72H33.2405C33.887 72 34.507 71.7432 34.9641 71.2861C35.4212 70.829 35.678 70.209 35.678 69.5625V57.375C35.678 56.7285 35.4212 56.1085 34.9641 55.6514C34.507 55.1943 33.887 54.9375 33.2405 54.9375H25.928C25.2815 54.9375 24.6616 55.1943 24.2044 55.6514C23.7473 56.1085 23.4905 56.7285 23.4905 57.375Z" fill="#333333"/>
<path id="Vector_4" d="M33.2405 71.3906H25.928C25.2815 71.3906 24.6616 71.1338 24.2044 70.6767C23.7473 70.2196 23.4905 69.5996 23.4905 68.9531V69.5625C23.4905 70.209 23.7473 70.829 24.2044 71.2861C24.6616 71.7432 25.2815 72 25.928 72H33.2405C33.887 72 34.507 71.7432 34.9641 71.2861C35.4212 70.829 35.678 70.209 35.678 69.5625V68.9531C35.678 69.5996 35.4212 70.2196 34.9641 70.6767C34.507 71.1338 33.887 71.3906 33.2405 71.3906Z" fill="black" fill-opacity="0.12549"/>
<path id="Vector_5" d="M80.2062 47.0595C77.5713 45.4751 77.1667 44.7999 77.135 44.739C77.1301 44.7317 77.1228 44.7268 77.1179 44.7146L77.1155 44.7C76.5695 43.4471 73.7469 37.1267 71.8651 35.6886C69.5739 33.9336 55.3681 33 52.8429 33C50.3176 33 36.1119 33.936 33.8206 35.6886C31.9389 37.1267 29.1162 43.4471 28.5702 44.7C28.5678 44.7073 28.5702 44.7146 28.5654 44.7244C28.5654 44.7292 28.5581 44.7317 28.5556 44.7366C28.541 44.7634 28.1851 45.4337 25.4819 47.0595C24.2876 47.7761 23.6051 49.0753 23.7026 50.4525L24.6532 63.7296C24.7897 65.6308 26.3911 67.125 28.2997 67.125H77.3861C79.2946 67.125 80.896 65.6332 81.0326 63.7271L81.9832 50.4525C82.0314 49.7777 81.8907 49.1028 81.5768 48.5035C81.263 47.9042 80.7884 47.4042 80.2062 47.0595Z" fill="url(#paint1_linear_1132_175)"/>
<path id="Vector_6" d="M80.2062 47.0595C77.5713 45.4751 77.1667 44.7999 77.135 44.739C77.1301 44.7317 77.1228 44.7268 77.1179 44.7146L77.1155 44.7C76.5695 43.4471 73.7469 37.1267 71.8651 35.6886C69.5739 33.9336 55.3681 33 52.8429 33C50.3176 33 36.1119 33.936 33.8206 35.6886C31.9389 37.1267 29.1162 43.4471 28.5702 44.7C28.5678 44.7073 28.5702 44.7146 28.5654 44.7244C28.5654 44.7292 28.5581 44.7317 28.5556 44.7366C28.541 44.7634 28.1851 45.4337 25.4819 47.0595C24.2876 47.7761 23.6051 49.0753 23.7026 50.4525L24.6532 63.7296C24.7897 65.6308 26.3911 67.125 28.2997 67.125H77.3861C79.2946 67.125 80.896 65.6332 81.0326 63.7271L81.9832 50.4525C82.0314 49.7777 81.8907 49.1028 81.5768 48.5035C81.263 47.9042 80.7884 47.4042 80.2062 47.0595ZM71.1241 43.9687C70.9267 43.9687 70.6634 43.9127 70.2466 43.8371C68.4112 43.5105 64.0992 42.75 52.8453 42.75C41.5914 42.75 37.2794 43.5129 35.4416 43.8371C35.0247 43.9102 34.7615 43.9687 34.5641 43.9687H31.5806C32.8359 41.307 34.4714 38.2601 35.3002 37.6264C36.6335 36.6879 48.3116 35.4375 52.8429 35.4375C57.3742 35.4375 69.0522 36.6879 70.3831 37.6239C71.2143 38.2601 72.8499 41.307 74.1052 43.9687H71.1241Z" fill="#006FBA"/>
<path id="Vector_7" d="M74.678 62.25C75.3511 62.25 75.8968 61.7043 75.8968 61.0312C75.8968 60.3582 75.3511 59.8125 74.678 59.8125C74.0049 59.8125 73.4593 60.3582 73.4593 61.0312C73.4593 61.7043 74.0049 62.25 74.678 62.25Z" fill="#F2F2F2"/>
<path id="Vector_8" d="M74.678 62.25C75.3511 62.25 75.8968 61.7043 75.8968 61.0312C75.8968 60.3582 75.3511 59.8125 74.678 59.8125C74.0049 59.8125 73.4593 60.3582 73.4593 61.0312C73.4593 61.7043 74.0049 62.25 74.678 62.25Z" fill="url(#paint2_linear_1132_175)"/>
<path id="Vector_9" d="M80.5817 65.2116L75.5409 60.1684C75.713 60.3384 75.8305 60.5558 75.8784 60.7929C75.9263 61.03 75.9024 61.276 75.8098 61.4995C75.7172 61.7229 75.56 61.9137 75.3584 62.0474C75.1568 62.1811 74.9199 62.2516 74.6781 62.25C74.5179 62.2506 74.3591 62.2194 74.2111 62.1583C74.063 62.0973 73.9284 62.0075 73.8152 61.8941L78.7706 66.8471C79.5433 66.5278 80.1795 65.9428 80.5817 65.2116Z" fill="url(#paint3_linear_1132_175)"/>
<path id="Vector_10" d="M35.3002 37.6264C36.6335 36.6879 48.3116 35.4375 52.8429 35.4375C57.3742 35.4375 69.0523 36.6879 70.3831 37.6239C71.2143 38.2601 72.8499 41.307 74.1052 43.9687H71.1241C70.9267 43.9687 70.6634 43.9127 70.2466 43.8371C68.4112 43.5105 64.0993 42.75 52.8453 42.75C41.5914 42.75 37.2795 43.5129 35.4416 43.8371C35.0248 43.9102 34.7615 43.9687 34.5641 43.9687H31.5806C32.8359 41.307 34.4715 38.2601 35.3002 37.6264Z" fill="#C1E0F4"/>
<path id="Vector_11" d="M72.1113 44.6415C72.01 44.4393 71.8544 44.2693 71.662 44.1505C71.4696 44.0317 71.2479 43.9688 71.0218 43.9687C70.8243 43.9687 70.5635 43.9127 70.1491 43.8371C68.3088 43.5129 63.9993 42.75 52.7405 42.75C41.4817 42.75 37.1722 43.5129 35.3319 43.8371C34.9175 43.9103 34.6567 43.9687 34.4593 43.9687C34.2329 43.9687 34.0111 44.0318 33.8185 44.1508C33.626 44.2698 33.4704 44.44 33.3692 44.6425C33.268 44.8449 33.2251 45.0715 33.2454 45.297C33.2658 45.5224 33.3485 45.7377 33.4843 45.9188L37.1405 50.7937C37.2438 50.9334 37.3758 51.0492 37.5278 51.1333C37.6797 51.2175 37.8479 51.2679 38.0211 51.2813C38.1942 51.2948 38.3682 51.2708 38.5313 51.211C38.6944 51.1513 38.8427 51.0572 38.9662 50.9351C40.0631 50.0576 47.5657 50.0503 52.0556 50.0625H53.423C57.8934 50.0454 65.3984 50.0576 66.5124 50.9327C66.6364 51.0546 66.785 51.1486 66.9483 51.2084C67.1116 51.2681 67.2858 51.2922 67.4592 51.279C67.6326 51.2659 67.8012 51.2158 67.9536 51.1321C68.106 51.0484 68.2388 50.933 68.3429 50.7937L71.9992 45.9188C72.1347 45.7373 72.217 45.5217 72.2368 45.2961C72.2566 45.0705 72.2131 44.8438 72.1113 44.6415Z" fill="#006FBA"/>
<path id="Vector_12" opacity="0.1" d="M72.1113 44.6415C72.01 44.4393 71.8544 44.2693 71.662 44.1505C71.4696 44.0317 71.2479 43.9688 71.0218 43.9687C70.8243 43.9687 70.5635 43.9127 70.1491 43.8371C68.3088 43.5129 63.9993 42.75 52.7405 42.75C41.4817 42.75 37.1722 43.5129 35.3319 43.8371C34.9175 43.9103 34.6567 43.9687 34.4593 43.9687C34.2329 43.9687 34.0111 44.0318 33.8185 44.1508C33.626 44.2698 33.4704 44.44 33.3692 44.6425C33.268 44.8449 33.2251 45.0715 33.2454 45.297C33.2658 45.5224 33.3485 45.7377 33.4843 45.9188L37.1405 50.7937C37.2438 50.9334 37.3758 51.0492 37.5278 51.1333C37.6797 51.2175 37.8479 51.2679 38.0211 51.2813C38.1942 51.2948 38.3682 51.2708 38.5313 51.211C38.6944 51.1513 38.8427 51.0572 38.9662 50.9351C40.0631 50.0576 47.5657 50.0503 52.0556 50.0625H53.423C57.8934 50.0454 65.3984 50.0576 66.5124 50.9327C66.6364 51.0546 66.785 51.1486 66.9483 51.2084C67.1116 51.2681 67.2858 51.2922 67.4592 51.279C67.6326 51.2659 67.8012 51.2158 67.9536 51.1321C68.106 51.0484 68.2388 50.933 68.3429 50.7937L71.9992 45.9188C72.1347 45.7373 72.217 45.5217 72.2368 45.2961C72.2566 45.0705 72.2131 44.8438 72.1113 44.6415Z" fill="white"/>
<path id="Vector_13" d="M35.3002 37.6264C36.6335 36.6879 48.3116 35.4375 52.8429 35.4375C57.3742 35.4375 69.0523 36.6879 70.3831 37.6239C71.2143 38.2601 72.8499 41.307 74.1052 43.9687H71.1241C70.9267 43.9687 70.6634 43.9127 70.2466 43.8371C68.4112 43.5105 64.0993 42.75 52.8453 42.75C41.5914 42.75 37.2795 43.5129 35.4416 43.8371C35.0248 43.9102 34.7615 43.9687 34.5641 43.9687H31.5806C32.8359 41.307 34.4715 38.2601 35.3002 37.6264Z" fill="url(#paint4_linear_1132_175)"/>
<path id="Vector_14" d="M42.9905 47.8054V45.4361C45.1843 45.3069 47.9825 45.2119 51.5218 45.1924V47.625C48.0922 47.625 45.2525 47.6591 42.9905 47.8054ZM53.9593 57.375H62.4905V59.8125H53.9593V57.375Z" fill="#F1F1F1"/>
<path id="Vector_15" d="M34.647 55.2885C29.6672 55.2398 27.7708 54.7766 27.1468 54.5402C27.1371 52.9314 27.4417 51.1277 27.9804 50.7645C28.7361 50.2965 32.5532 50.3891 36.2338 50.7645C35.4904 52.2782 34.92 54.2428 34.647 55.2885Z" fill="#A1ABB2"/>
<path id="Vector_16" d="M42.9905 57.375H51.5218V59.8125H42.9905V57.375Z" fill="#F1F1F1"/>
<path id="Vector_17" d="M66.2882 64.6875H39.4757C37.984 64.6875 37.4038 63.3152 37.1796 62.25H68.5843C68.3601 63.3152 67.78 64.6875 66.2882 64.6875Z" fill="#4D4D4D"/>
<path id="Vector_18" d="M66.2882 64.6875H39.4757C37.984 64.6875 37.4038 63.3152 37.1796 62.25H68.5843C68.3601 63.3152 67.78 64.6875 66.2882 64.6875Z" fill="url(#paint5_linear_1132_175)"/>
<path id="Vector_19" opacity="0.1" d="M68.4064 62.8594C68.4746 62.6546 68.5429 62.445 68.5843 62.25H37.1796C37.221 62.445 37.2893 62.6546 37.36 62.8594H68.4064Z" fill="black"/>
<path id="Vector_20" d="M53.9593 47.6299V45.1924C57.4985 45.2119 60.2968 45.3069 62.4905 45.4361V47.8346C60.2358 47.6933 57.3937 47.6591 53.9593 47.6299Z" fill="#F1F1F1"/>
<path id="Vector_21" d="M37.2721 54.9375C37.7645 53.2873 38.447 51.4543 38.9637 50.9351C40.0606 50.0576 47.5779 50.0747 52.0726 50.0625H53.4084C57.9324 50.0601 65.4204 50.0601 66.5026 50.9254C67.0315 51.4494 67.7165 53.2897 68.2089 54.9375H37.2721Z" fill="#4D4D4D"/>
<path id="Vector_22" d="M37.2721 54.9375C37.7645 53.2873 38.447 51.4543 38.9637 50.9351C40.0606 50.0576 47.5779 50.0747 52.0726 50.0625H53.4084C57.9324 50.0601 65.4204 50.0601 66.5026 50.9254C67.0315 51.4494 67.7165 53.2897 68.2089 54.9375H37.2721Z" fill="url(#paint6_linear_1132_175)"/>
<path id="Vector_23" opacity="0.1" d="M38.9637 51.5445C40.0606 50.667 47.5779 50.6841 52.0726 50.6719H53.4084C57.9324 50.6694 65.4204 50.6694 66.5026 51.5347C66.9657 51.9954 67.5434 53.4677 68.0139 54.9375H68.2089C67.7165 53.2873 67.0315 51.4519 66.5026 50.9254C65.4204 50.0601 57.9324 50.0601 53.4084 50.0625H52.0726C47.5779 50.0747 40.063 50.0576 38.9637 50.9351C38.447 51.4543 37.7645 53.2873 37.2721 54.9375H37.4671C37.9351 53.4701 38.5104 52.0003 38.9637 51.5445Z" fill="black"/>
<path id="Vector_24" d="M29.5843 45.1875H24.7093C24.386 45.1875 24.076 45.0591 23.8475 44.8305C23.6189 44.602 23.4905 44.292 23.4905 43.9687C23.4905 43.6455 23.6189 43.3355 23.8475 43.107C24.076 42.8784 24.386 42.75 24.7093 42.75H29.5843C29.9075 42.75 30.2175 42.8784 30.446 43.107C30.6746 43.3355 30.803 43.6455 30.803 43.9687C30.803 44.292 30.6746 44.602 30.446 44.8305C30.2175 45.0591 29.9075 45.1875 29.5843 45.1875Z" fill="#006FBA"/>
<path id="Vector_25" d="M34.6421 55.8979C29.6062 55.8516 27.6489 55.386 26.9299 55.1081C26.8151 55.0644 26.7162 54.987 26.6461 54.8861C26.5761 54.7852 26.5382 54.6655 26.5374 54.5426C26.535 54.1819 26.5472 50.9936 27.6392 50.2599C27.9414 50.0698 28.5703 49.8383 30.7616 49.8383C32.3045 49.8383 34.2692 49.9528 36.2947 50.16C36.3927 50.1696 36.4869 50.2028 36.5693 50.2568C36.6516 50.3108 36.7197 50.3839 36.7676 50.4699C36.8155 50.5559 36.8419 50.6523 36.8444 50.7507C36.847 50.8491 36.8256 50.9467 36.7822 51.0351C36.0559 52.5073 35.5025 54.4281 35.2369 55.4421C35.2025 55.5724 35.126 55.6878 35.0194 55.7702C34.9127 55.8526 34.7818 55.8975 34.647 55.8979H34.6421ZM70.7854 55.8979C75.8212 55.8516 77.7785 55.386 78.4976 55.1081C78.6119 55.064 78.7103 54.9865 78.7799 54.8856C78.8495 54.7847 78.887 54.6652 78.8876 54.5426C78.8925 54.1819 78.8803 50.9936 77.7883 50.2599C77.486 50.0698 76.8572 49.8383 74.6634 49.8383C73.1229 49.8383 71.1583 49.9528 69.1303 50.16C69.0327 50.1703 68.9391 50.2041 68.8574 50.2583C68.7756 50.3126 68.7082 50.3858 68.6608 50.4717C68.6134 50.5576 68.5875 50.6537 68.5852 50.7518C68.5829 50.8499 68.6043 50.947 68.6477 51.0351C69.3716 52.5073 69.9249 54.4281 70.1906 55.4421C70.2252 55.5732 70.3024 55.6892 70.41 55.7717C70.5177 55.8542 70.6497 55.8986 70.7854 55.8979Z" fill="#F2F2F2"/>
<path id="Vector_26" d="M34.6421 55.8979C29.6062 55.8516 27.6489 55.386 26.9299 55.1081C26.8151 55.0644 26.7162 54.987 26.6461 54.8861C26.5761 54.7852 26.5382 54.6655 26.5374 54.5426C26.535 54.1819 26.5472 50.9936 27.6392 50.2599C27.9414 50.0698 28.5703 49.8383 30.7616 49.8383C32.3045 49.8383 34.2692 49.9528 36.2947 50.16C36.3927 50.1696 36.4869 50.2028 36.5693 50.2568C36.6516 50.3108 36.7197 50.3839 36.7676 50.4699C36.8155 50.5559 36.8419 50.6523 36.8444 50.7507C36.847 50.8491 36.8256 50.9467 36.7822 51.0351C36.0559 52.5073 35.5025 54.4281 35.2369 55.4421C35.2025 55.5724 35.126 55.6878 35.0194 55.7702C34.9127 55.8526 34.7818 55.8975 34.647 55.8979H34.6421Z" fill="url(#paint7_linear_1132_175)"/>
<path id="Vector_27" d="M70.7853 55.8979C75.8212 55.8516 77.7785 55.386 78.4976 55.1081C78.6119 55.064 78.7103 54.9865 78.7798 54.8856C78.8494 54.7847 78.887 54.6652 78.8876 54.5426C78.8924 54.1819 78.8802 50.9936 77.7882 50.2599C77.486 50.0698 76.8571 49.8383 74.6634 49.8383C73.1229 49.8383 71.1583 49.9528 69.1303 50.16C69.0327 50.1703 68.9391 50.2041 68.8573 50.2583C68.7756 50.3126 68.7082 50.3858 68.6608 50.4717C68.6134 50.5576 68.5875 50.6537 68.5852 50.7518C68.5829 50.8499 68.6043 50.947 68.6476 51.0351C69.3716 52.5073 69.9249 54.4281 70.1906 55.4421C70.2251 55.5732 70.3023 55.6892 70.41 55.7717C70.5177 55.8542 70.6497 55.8986 70.7853 55.8979Z" fill="url(#paint8_linear_1132_175)"/>
<path id="Vector_28" d="M80.7718 45.1875H75.8968C75.5735 45.1875 75.2635 45.0591 75.035 44.8305C74.8064 44.602 74.678 44.292 74.678 43.9687C74.678 43.6455 74.8064 43.3355 75.035 43.107C75.2635 42.8784 75.5735 42.75 75.8968 42.75H80.7718C81.095 42.75 81.405 42.8784 81.6335 43.107C81.8621 43.3355 81.9905 43.6455 81.9905 43.9687C81.9905 44.292 81.8621 44.602 81.6335 44.8305C81.405 45.0591 81.095 45.1875 80.7718 45.1875Z" fill="#006FBA"/>
<path id="Vector_29" d="M30.803 62.25C31.4761 62.25 32.0218 61.7043 32.0218 61.0312C32.0218 60.3582 31.4761 59.8125 30.803 59.8125C30.1299 59.8125 29.5843 60.3582 29.5843 61.0312C29.5843 61.7043 30.1299 62.25 30.803 62.25Z" fill="#F2F2F2"/>
<path id="Vector_30" d="M30.803 62.25C31.4761 62.25 32.0218 61.7043 32.0218 61.0312C32.0218 60.3582 31.4761 59.8125 30.803 59.8125C30.1299 59.8125 29.5843 60.3582 29.5843 61.0312C29.5843 61.7043 30.1299 62.25 30.803 62.25Z" fill="url(#paint9_linear_1132_175)"/>
<path id="Vector_31" d="M25.4819 47.6689C28.1876 46.0431 28.541 45.3727 28.5532 45.3459C28.5581 45.3411 28.5629 45.3386 28.5654 45.3313C28.5702 45.324 28.5654 45.3167 28.5702 45.3069C29.1162 44.0565 31.9389 37.7361 33.8206 36.2979C36.1119 34.5429 50.3176 33.6094 52.8429 33.6094C55.3681 33.6094 69.5739 34.5454 71.8651 36.2979C73.7469 37.7361 76.5695 44.0565 77.1155 45.3094L77.1179 45.3264C77.1228 45.3362 77.1301 45.3411 77.1325 45.3508C77.1667 45.4093 77.5713 46.0845 80.2062 47.6664C81.3055 48.3294 81.9417 49.4921 81.9612 50.7474L81.9807 50.4549C82.0296 49.78 81.8895 49.1048 81.5761 48.505C81.2626 47.9052 80.7883 47.4047 80.2062 47.0595C77.5713 45.4751 77.1667 44.7999 77.135 44.739C77.1301 44.7317 77.1228 44.7268 77.1179 44.7146L77.1155 44.7C76.5695 43.4471 73.7469 37.1267 71.8651 35.6886C69.5739 33.9336 55.3681 33 52.8429 33C50.3176 33 36.1119 33.936 33.8206 35.6886C31.9389 37.1267 29.1162 43.4471 28.5702 44.7C28.5678 44.7073 28.5702 44.7146 28.5654 44.7244C28.5654 44.7292 28.5581 44.7317 28.5556 44.7366C28.541 44.7634 28.1851 45.4337 25.4819 47.0595C24.2876 47.7761 23.6051 49.0753 23.7026 50.4525L23.7269 50.7474C23.744 49.4921 24.3802 48.3294 25.4819 47.6689Z" fill="white" fill-opacity="0.24"/>
<path id="Vector_32" opacity="0.2" d="M34.5617 44.5781C34.7591 44.5781 35.0224 44.5221 35.4392 44.4465C37.277 44.1199 41.5865 43.3594 52.8429 43.3594C64.0993 43.3594 68.4088 44.1223 70.2467 44.4465C70.6635 44.5196 70.9267 44.5781 71.1242 44.5781H74.3977C74.3051 44.3782 74.2027 44.1735 74.1052 43.9687H71.1242C70.9267 43.9687 70.6635 43.9127 70.2467 43.8371C68.4112 43.5105 64.0993 42.75 52.8453 42.75C41.5914 42.75 37.2795 43.5129 35.4416 43.8371C35.0248 43.9103 34.7615 43.9687 34.5641 43.9687H31.5806C31.4831 44.1735 31.3807 44.3782 31.2881 44.5781H34.5617Z" fill="white"/>
<path id="Vector_33" d="M34.6421 55.8979C29.6062 55.8516 27.6489 55.386 26.9299 55.1081C26.8151 55.0644 26.7162 54.987 26.6461 54.8861C26.5761 54.7852 26.5382 54.6655 26.5374 54.5426C26.535 54.1819 26.5472 50.9936 27.6392 50.2599C27.9414 50.0698 28.5703 49.8383 30.7616 49.8383C32.3045 49.8383 34.2692 49.9528 36.2947 50.16C36.3927 50.1696 36.4869 50.2028 36.5693 50.2568C36.6516 50.3108 36.7197 50.3839 36.7676 50.4699C36.8155 50.5559 36.8419 50.6523 36.8444 50.7507C36.847 50.8491 36.8256 50.9467 36.7822 51.0351C36.0559 52.5073 35.5025 54.4281 35.2369 55.4421C35.2025 55.5724 35.126 55.6878 35.0194 55.7702C34.9127 55.8526 34.7818 55.8975 34.647 55.8979H34.6421Z" fill="url(#paint10_linear_1132_175)"/>
<path id="Vector_34" d="M70.7853 55.8979C75.8212 55.8516 77.7785 55.386 78.4976 55.1081C78.6119 55.064 78.7103 54.9865 78.7798 54.8856C78.8494 54.7847 78.887 54.6652 78.8876 54.5426C78.8924 54.1819 78.8802 50.9936 77.7882 50.2599C77.486 50.0698 76.8571 49.8383 74.6634 49.8383C73.1229 49.8383 71.1583 49.9528 69.1303 50.16C69.0327 50.1703 68.9391 50.2041 68.8573 50.2583C68.7756 50.3126 68.7082 50.3858 68.6608 50.4717C68.6134 50.5576 68.5875 50.6537 68.5852 50.7518C68.5829 50.8499 68.6043 50.947 68.6476 51.0351C69.3716 52.5073 69.9249 54.4281 70.1906 55.4421C70.2251 55.5732 70.3023 55.6892 70.41 55.7717C70.5177 55.8542 70.6497 55.8986 70.7853 55.8979Z" fill="url(#paint11_linear_1132_175)"/>
<path id="Vector_35" d="M28.2997 67.125C27.3174 67.125 26.4179 66.7228 25.7574 66.0769H25.7281L31.6488 72H33.2405C33.887 72 34.5069 71.7432 34.9641 71.2861C35.4212 70.829 35.678 70.209 35.678 69.5625V67.125H28.2997Z" fill="url(#paint12_linear_1132_175)"/>
<path id="Vector_36" d="M81.5809 56.0392L81.0325 63.7271C80.9638 64.6489 80.5499 65.5107 79.8734 66.1406C79.197 66.7705 78.3079 67.122 77.3836 67.125H69.8029L74.6779 72H79.5529C80.1994 72 80.8194 71.7432 81.2765 71.2861C81.7336 70.8289 81.9904 70.209 81.9904 69.5625V57.375C81.9903 56.8989 81.8477 56.4337 81.5809 56.0392Z" fill="url(#paint13_linear_1132_175)"/>
<path id="Vector_37" d="M31.6658 60.1684C31.8379 60.3384 31.9554 60.5558 32.0033 60.7929C32.0512 61.03 32.0273 61.276 31.9347 61.4995C31.842 61.7229 31.6849 61.9137 31.4833 62.0474C31.2817 62.1811 31.0448 62.2516 30.8029 62.25C30.6427 62.2506 30.484 62.2194 30.3359 62.1583C30.1878 62.0973 30.0533 62.0075 29.9401 61.8941L35.1734 67.125H38.62L31.6658 60.1684Z" fill="url(#paint14_linear_1132_175)"/>
<path id="Vector_38" d="M81.9808 50.4525C82.0292 49.7779 81.8889 49.1032 81.5754 48.504C81.262 47.9047 80.7879 47.4045 80.2063 47.0595C78.6999 46.1527 77.9345 45.5531 77.5396 45.1875H80.7718C81.095 45.1875 81.405 45.0591 81.6335 44.8305C81.8621 44.602 81.9905 44.292 81.9905 43.9687C81.9905 43.6455 81.8621 43.3355 81.6335 43.107C81.405 42.8784 81.095 42.75 80.7718 42.75H76.2258C75.0997 40.3686 73.2374 36.7367 71.8627 35.6886C69.5739 33.9336 55.3706 33 52.8453 33C50.3201 33 36.1143 33.936 33.8231 35.6886C32.4483 36.7367 30.5861 40.3686 29.4624 42.75H24.7093C24.386 42.75 24.076 42.8784 23.8475 43.107C23.6189 43.3355 23.4905 43.6455 23.4905 43.9687C23.4905 44.292 23.6189 44.602 23.8475 44.8305C24.076 45.0591 24.386 45.1875 24.7093 45.1875H28.1461C27.7513 45.5531 26.9883 46.1527 25.4819 47.0595C24.2876 47.7761 23.6051 49.0753 23.7026 50.4525L24.0877 55.8223C23.7098 56.2521 23.498 56.8028 23.4905 57.375V69.5625C23.4905 70.209 23.7473 70.829 24.2044 71.2861C24.6616 71.7432 25.2815 72 25.928 72H33.2405C33.887 72 34.507 71.7432 34.9641 71.2861C35.4212 70.829 35.678 70.209 35.678 69.5625V67.125H69.803V69.5625C69.803 70.209 70.0598 70.829 70.5169 71.2861C70.974 71.7432 71.594 72 72.2405 72H79.553C80.1995 72 80.8195 71.7432 81.2766 71.2861C81.7337 70.829 81.9905 70.209 81.9905 69.5625V57.375C81.9784 56.9182 81.8345 56.4746 81.5761 56.0977L81.9808 50.4525Z" fill="url(#paint15_linear_1132_175)"/>
</g>
<circle id="Ellipse 1" opacity="0.1" cx="92" cy="13" r="5" fill="white"/>
</g>
<defs>
<radialGradient id="paint0_radial_1132_175" cx="0" cy="0" r="1" gradientUnits="userSpaceOnUse" gradientTransform="translate(53 52.5) rotate(90) scale(52.5 53)">
<stop stop-color="white" stop-opacity="0.05"/>
<stop offset="1" stop-color="#999999" stop-opacity="0.05"/>
</radialGradient>
<linearGradient id="paint1_linear_1132_175" x1="23.6952" y1="50.0625" x2="81.9905" y2="50.0625" gradientUnits="userSpaceOnUse">
<stop stop-color="#303C42" stop-opacity="0"/>
<stop offset="1" stop-color="#303C42" stop-opacity="0.2"/>
</linearGradient>
<linearGradient id="paint2_linear_1132_175" x1="75.4483" y1="61.8015" x2="74.0833" y2="60.4365" gradientUnits="userSpaceOnUse">
<stop stop-opacity="0.1"/>
<stop offset="1" stop-opacity="0"/>
</linearGradient>
<linearGradient id="paint3_linear_1132_175" x1="74.9511" y1="61.3043" x2="79.0266" y2="65.3798" gradientUnits="userSpaceOnUse">
<stop stop-opacity="0.1"/>
<stop offset="1" stop-opacity="0"/>
</linearGradient>
<linearGradient id="paint4_linear_1132_175" x1="36.263" y1="33.9263" x2="71.1948" y2="50.2136" gradientUnits="userSpaceOnUse">
<stop stop-color="white" stop-opacity="0.2"/>
<stop offset="1" stop-color="white" stop-opacity="0"/>
</linearGradient>
<linearGradient id="paint5_linear_1132_175" x1="45.6426" y1="55.4981" x2="58.459" y2="68.3169" gradientUnits="userSpaceOnUse">
<stop stop-opacity="0.1"/>
<stop offset="1" stop-opacity="0"/>
</linearGradient>
<linearGradient id="paint6_linear_1132_175" x1="45.3061" y1="46.3502" x2="58.4662" y2="59.5102" gradientUnits="userSpaceOnUse">
<stop stop-opacity="0.1"/>
<stop offset="1" stop-opacity="0"/>
</linearGradient>
<linearGradient id="paint7_linear_1132_175" x1="28.7945" y1="49.7578" x2="33.9109" y2="54.8741" gradientUnits="userSpaceOnUse">
<stop stop-opacity="0"/>
<stop offset="1" stop-opacity="0.1"/>
</linearGradient>
<linearGradient id="paint8_linear_1132_175" x1="70.4806" y1="49.3873" x2="76.2526" y2="55.1593" gradientUnits="userSpaceOnUse">
<stop stop-opacity="0"/>
<stop offset="1" stop-opacity="0.1"/>
</linearGradient>
<linearGradient id="paint9_linear_1132_175" x1="31.5733" y1="61.8015" x2="30.2083" y2="60.4365" gradientUnits="userSpaceOnUse">
<stop stop-opacity="0.1"/>
<stop offset="1" stop-opacity="0"/>
</linearGradient>
<linearGradient id="paint10_linear_1132_175" x1="27.2735" y1="50.5939" x2="35.6805" y2="54.5134" gradientUnits="userSpaceOnUse">
<stop stop-color="white" stop-opacity="0.4"/>
<stop offset="1" stop-color="white" stop-opacity="0"/>
</linearGradient>
<linearGradient id="paint11_linear_1132_175" x1="68.6549" y1="50.4793" x2="78.6682" y2="55.1496" gradientUnits="userSpaceOnUse">
<stop stop-color="white" stop-opacity="0.4"/>
<stop offset="1" stop-color="white" stop-opacity="0"/>
</linearGradient>
<linearGradient id="paint12_linear_1132_175" x1="28.3338" y1="64.2341" x2="34.0522" y2="69.9525" gradientUnits="userSpaceOnUse">
<stop stop-opacity="0.1"/>
<stop offset="1" stop-opacity="0"/>
</linearGradient>
<linearGradient id="paint13_linear_1132_175" x1="75.9333" y1="61.821" x2="82.1221" y2="68.0098" gradientUnits="userSpaceOnUse">
<stop stop-opacity="0.1"/>
<stop offset="1" stop-opacity="0"/>
</linearGradient>
<linearGradient id="paint14_linear_1132_175" x1="31.171" y1="61.3993" x2="36.6773" y2="66.9056" gradientUnits="userSpaceOnUse">
<stop stop-opacity="0.1"/>
<stop offset="1" stop-opacity="0"/>
</linearGradient>
<linearGradient id="paint15_linear_1132_175" x1="24.1048" y1="42.3819" x2="82.2708" y2="69.504" gradientUnits="userSpaceOnUse">
<stop stop-color="white" stop-opacity="0.2"/>
<stop offset="1" stop-color="white" stop-opacity="0"/>
</linearGradient>
</defs>
</svg>
