<svg width="106" height="105" viewBox="0 0 106 105" fill="none" xmlns="http://www.w3.org/2000/svg">
<g id="Group 28">
<g id="Rectangle 15">
<rect width="106" height="105" rx="5" fill="url(#paint0_radial_1132_265)"/>
<rect x="0.5" y="0.5" width="105" height="104" rx="4.5" stroke="white" stroke-opacity="0.1"/>
</g>
<circle id="Ellipse 1" opacity="0.1" cx="92" cy="13" r="5" fill="white"/>
<g id="Layer 31">
<path id="Vector" d="M46.8228 47.3889L49.5694 44.6423C50.3905 43.8212 51.3653 43.1699 52.4381 42.7256C53.5109 42.2813 54.6607 42.0526 55.8219 42.0526H72.812C73.9732 42.0526 75.123 42.2813 76.1958 42.7256C77.2686 43.1699 78.2434 43.8212 79.0644 44.6423L85.2384 50.8163C86.704 52.282 87.5274 54.2699 87.5275 56.3426C87.5275 57.3689 87.3253 58.3852 86.9325 59.3334C86.5398 60.2816 85.9641 61.1431 85.2384 61.8689C84.5127 62.5946 83.6511 63.1702 82.7029 63.563C81.7547 63.9558 80.7385 64.1579 79.7121 64.1579H54.6624C53.899 64.1579 53.1485 63.9602 52.4842 63.5841C51.8198 63.2079 51.2642 62.6661 50.8714 62.0115L46.8151 55.2517C46.4223 54.597 45.8667 54.0553 45.2023 53.6791C44.5379 53.303 43.7875 53.1053 43.024 53.1053H23.4222V48.6842H43.696C44.2768 48.6842 44.8518 48.5699 45.3883 48.3476C45.9248 48.1253 46.4123 47.7995 46.8228 47.3889Z" fill="#F8C460"/>
<path id="Vector_2" d="M81.9227 60.8421H64.759C61.5913 60.8418 58.4776 60.0214 55.7211 58.4606C52.9645 56.8999 50.659 54.652 49.0289 51.9359C48.6358 51.2808 48.0797 50.7387 47.4147 50.3625C46.7497 49.9863 45.9986 49.7889 45.2346 49.7895H25.6327V48.6842H23.4222V53.1053H43.024C43.7875 53.1052 44.5379 53.3029 45.2023 53.6791C45.8667 54.0552 46.4223 54.597 46.8151 55.2517L50.8714 62.0115C51.2642 62.6661 51.8198 63.2079 52.4842 63.5841C53.1486 63.9602 53.899 64.1579 54.6625 64.1579H79.7121C81.3417 64.1569 82.9302 63.6465 84.2552 62.6979C85.5803 61.7494 86.5756 60.4103 87.1019 58.8681C85.6767 60.1402 83.833 60.8429 81.9227 60.8421Z" fill="#FAAF42"/>
<path id="Vector_3" d="M21.2117 48.6842H27.8432L23.4222 37.6316H19.0011L21.2117 48.6842Z" fill="#F8C460"/>
<path id="Vector_4" d="M25.8715 43.7536C24.996 43.3058 24.0154 43.1041 23.0343 43.17C22.0532 43.236 21.1085 43.5673 20.3009 44.1283L21.2117 48.6842H27.8432L25.8715 43.7536Z" fill="#FAAF42"/>
<path id="Vector_5" d="M21.2117 53.1053H27.8432L23.4222 59.7369H19.0011L21.2117 53.1053Z" fill="#F8C460"/>
<path id="Vector_6" d="M20.1141 56.399C20.5916 57.0392 21.203 57.5677 21.9057 57.9473C22.6083 58.327 23.3854 58.5489 24.1826 58.5973L27.8432 53.1053H21.2117L20.1141 56.399Z" fill="#FAAF42"/>
<g id="Group">
<path id="Vector_7" d="M24.5274 56.421C27.5795 56.421 30.0538 53.9468 30.0538 50.8947C30.0538 47.8426 27.5795 45.3684 24.5274 45.3684C21.4753 45.3684 19.0011 47.8426 19.0011 50.8947C19.0011 53.9468 21.4753 56.421 24.5274 56.421Z" fill="#7A838B"/>
<path id="Vector_8" d="M78.6853 69.6842H75.3696V64.1579H78.6853V69.6842ZM59.8959 69.6842H56.5801V64.1579H59.8959V69.6842Z" fill="#7A838B"/>
</g>
<path id="Vector_9" d="M78.6853 66.3684H75.3696V64.1579H78.6853V66.3684ZM59.8959 66.3684H56.5801V64.1579H59.8959V66.3684Z" fill="#5D6972"/>
<path id="Vector_10" d="M61.0011 37.6316L85.8021 38.665C86.0252 38.6741 86.2477 38.638 86.4565 38.559C86.6653 38.48 86.8559 38.3596 87.0171 38.2051C87.1782 38.0506 87.3064 37.8651 87.3941 37.6598C87.4818 37.4545 87.5272 37.2337 87.5274 37.0104C87.5278 36.5827 87.3629 36.1714 87.0671 35.8624C86.7713 35.5535 86.3676 35.3708 85.9403 35.3525L61.0011 34.3158V37.6316ZM61.0011 37.6316L36.2001 38.665C35.9771 38.6741 35.7545 38.638 35.5457 38.559C35.3369 38.48 35.1463 38.3596 34.9852 38.2051C34.8241 38.0506 34.6958 37.8651 34.6081 37.6598C34.5204 37.4545 34.4751 37.2337 34.4748 37.0104C34.4744 36.5827 34.6393 36.1714 34.9351 35.8624C35.2309 35.5535 35.6346 35.3708 36.062 35.3525L61.0011 34.3158V37.6316Z" fill="#A7D0E1"/>
<path id="Vector_11" d="M56.5801 37.8162L61.0011 37.6316V34.3158L56.5801 34.5004V37.8162ZM65.4222 37.8162L61.0011 37.6316V34.3158L65.4222 34.5004V37.8162Z" fill="#80BBCE"/>
<path id="Vector_12" d="M80.8959 69.6842L85.4573 68.1634C85.6937 68.0845 85.9455 68.063 86.1918 68.1006C86.4382 68.1382 86.6721 68.2338 86.8743 68.3795C87.0765 68.5252 87.2411 68.7169 87.3547 68.9388C87.4682 69.1606 87.5274 69.4062 87.5274 69.6555C87.5276 69.9856 87.4238 70.3074 87.2308 70.5752C87.0377 70.8431 86.7653 71.0433 86.452 71.1476L80.8959 73H51.6064C51.1667 73 50.745 72.8253 50.4341 72.5144C50.1232 72.2035 49.9485 71.7818 49.9485 71.3421C49.9485 70.9024 50.1232 70.4807 50.4341 70.1698C50.745 69.8589 51.1667 69.6842 51.6064 69.6842H80.8959Z" fill="#F8C460"/>
<path id="Vector_13" d="M87.1892 68.6895C86.9908 68.4329 86.7176 68.2443 86.4073 68.1497C86.0971 68.055 85.7651 68.059 85.4573 68.1612L80.8959 69.6842H84.2116L87.1892 68.6895ZM53.2643 71.3421C53.2643 70.9024 53.4389 70.4807 53.7499 70.1698C54.0608 69.8589 54.4825 69.6842 54.9222 69.6842H51.6064C51.1667 69.6842 50.745 69.8589 50.4341 70.1698C50.1232 70.4807 49.9485 70.9024 49.9485 71.3421C49.9485 71.7818 50.1232 72.2035 50.4341 72.5144C50.745 72.8253 51.1667 73 51.6064 73H54.9222C54.4825 73 54.0608 72.8253 53.7499 72.5144C53.4389 72.2035 53.2643 71.7818 53.2643 71.3421Z" fill="#FAAF42"/>
<path id="Vector_14" d="M73.159 42.0747V48.6842C73.159 49.8567 73.6248 50.9813 74.4539 51.8104C75.283 52.6395 76.4075 53.1053 77.5801 53.1053H86.8201C86.4374 52.2525 85.9017 51.477 85.2396 50.8174L79.0611 44.6389C77.4936 43.0615 75.3817 42.144 73.159 42.0747Z" fill="#A7D0E1"/>
<path id="Vector_15" d="M79.7906 49.5994C79.4975 49.5993 79.2164 49.4828 79.0092 49.2755L77.9039 48.1703C77.7026 47.9618 77.5912 47.6826 77.5937 47.3928C77.5962 47.103 77.7125 46.8258 77.9174 46.6209C78.1223 46.416 78.3995 46.2997 78.6893 46.2972C78.9791 46.2947 79.2583 46.4061 79.4668 46.6074L80.572 47.7127C80.7266 47.8673 80.8318 48.0642 80.8744 48.2786C80.917 48.4929 80.8951 48.7151 80.8115 48.9171C80.7279 49.119 80.5862 49.2916 80.4045 49.413C80.2228 49.5345 80.0092 49.5993 79.7906 49.5994Z" fill="white"/>
<path id="Vector_16" d="M84.2117 49.7895H80.8959C79.7233 49.7895 78.5988 49.3237 77.7697 48.4946C76.9406 47.6655 76.4748 46.541 76.4748 45.3684V42.8507C75.432 42.3749 74.3047 42.1119 73.159 42.077V48.6842C73.159 49.8568 73.6248 50.9813 74.4539 51.8104C75.283 52.6395 76.4075 53.1053 77.5801 53.1053H86.8201C86.4374 52.2525 85.9017 51.4771 85.2396 50.8174L84.2117 49.7895Z" fill="#80BBCE"/>
<path id="Vector_17" d="M63.2117 42.0526H58.7906V33.2105C58.7906 32.6243 59.0235 32.062 59.4381 31.6474C59.8526 31.2329 60.4149 31 61.0011 31C61.5874 31 62.1497 31.2329 62.5642 31.6474C62.9788 32.062 63.2117 32.6243 63.2117 33.2105V42.0526Z" fill="#7A838B"/>
<path id="Vector_18" d="M63.2117 42.0526H58.7906V39.8421H63.2117V42.0526Z" fill="#5D6972"/>
<path id="Vector_19" d="M56.5801 45.3684H54.3696C53.1487 45.3684 52.159 46.3581 52.159 47.5789V50.8947C52.159 52.1156 53.1487 53.1052 54.3696 53.1052H56.5801C57.8009 53.1052 58.7906 52.1156 58.7906 50.8947V47.5789C58.7906 46.3581 57.8009 45.3684 56.5801 45.3684Z" fill="#A7D0E1"/>
<path id="Vector_20" d="M57.6853 49.7895C57.0991 49.7895 56.5368 49.5566 56.1223 49.142C55.7077 48.7275 55.4748 48.1652 55.4748 47.5789V45.3684H54.3696C53.7833 45.3684 53.221 45.6013 52.8065 46.0159C52.3919 46.4304 52.159 46.9927 52.159 47.5789V50.8947C52.159 51.481 52.3919 52.0432 52.8065 52.4578C53.221 52.8724 53.7833 53.1052 54.3696 53.1052H56.5801C57.1663 53.1052 57.7286 52.8724 58.1432 52.4578C58.5577 52.0432 58.7906 51.481 58.7906 50.8947V49.7895H57.6853Z" fill="#80BBCE"/>
<path id="Vector_21" d="M67.6327 45.3684H65.4222C64.2013 45.3684 63.2117 46.3581 63.2117 47.5789V50.8947C63.2117 52.1156 64.2013 53.1052 65.4222 53.1052H67.6327C68.8535 53.1052 69.8432 52.1156 69.8432 50.8947V47.5789C69.8432 46.3581 68.8535 45.3684 67.6327 45.3684Z" fill="#A7D0E1"/>
<path id="Vector_22" d="M68.738 49.7895C68.1517 49.7895 67.5894 49.5566 67.1749 49.142C66.7603 48.7275 66.5274 48.1652 66.5274 47.5789V45.3684H65.4222C64.8359 45.3684 64.2737 45.6013 63.8591 46.0159C63.4445 46.4304 63.2117 46.9927 63.2117 47.5789V50.8947C63.2117 51.481 63.4445 52.0432 63.8591 52.4578C64.2737 52.8724 64.8359 53.1052 65.4222 53.1052H67.6327C68.219 53.1052 68.7812 52.8724 69.1958 52.4578C69.6103 52.0432 69.8432 51.481 69.8432 50.8947V49.7895H68.738Z" fill="#80BBCE"/>
<path id="Vector_23" d="M30.0538 50.8947C30.0542 50.5235 30.0172 50.1532 29.9432 49.7895H27.1955L29.1353 47.8508C28.7243 47.2304 28.1929 46.6989 27.5724 46.288L25.6327 48.2266V45.4789C24.9034 45.3301 24.1515 45.3301 23.4222 45.4789V48.2255L21.4824 46.288C20.862 46.6989 20.3306 47.2304 19.9196 47.8508L21.8593 49.7895H19.1117C18.9628 50.5188 18.9628 51.2707 19.1117 52H21.8593L19.9196 53.9386C20.3306 54.559 20.862 55.0905 21.4824 55.5015L23.4222 53.5628V56.3105C24.1515 56.4594 24.9034 56.4594 25.6327 56.3105V53.5628L27.5724 55.5015C28.1929 55.0905 28.7243 54.559 29.1353 53.9386L27.1955 52H29.9432C30.0172 51.6362 30.0542 51.2659 30.0538 50.8947Z" fill="#5D6972"/>
</g>
</g>
<defs>
<radialGradient id="paint0_radial_1132_265" cx="0" cy="0" r="1" gradientUnits="userSpaceOnUse" gradientTransform="translate(53 52.5) rotate(90) scale(52.5 53)">
<stop stop-color="white" stop-opacity="0.05"/>
<stop offset="1" stop-color="#999999" stop-opacity="0.05"/>
</radialGradient>
</defs>
</svg>
