<svg width="105" height="105" viewBox="0 0 105 105" fill="none" xmlns="http://www.w3.org/2000/svg">
<g id="Group 27">
<g id="Rectangle 11">
<rect width="105" height="105" rx="5" fill="url(#paint0_radial_1132_250)"/>
<rect x="0.5" y="0.5" width="104" height="104" rx="4.5" stroke="#54DE43" stroke-opacity="0.1"/>
</g>
<circle id="Ellipse 1" cx="92" cy="13" r="5" fill="#54DE43"/>
<g id="Group">
<path id="Vector" d="M54.8189 32V39.969L52.5 39.1225L50.1899 39.9602V32H54.8189Z" fill="#53677D"/>
<path id="Vector_2" d="M52.5 37.8017L50.1899 38.6394V39.9619L52.5 39.1225L54.8189 39.969V38.6482L52.5 37.8017Z" fill="#404D61"/>
<path id="Vector_3" d="M65.4084 43.7092V53.5404L52.5 46.5537L39.6004 53.5404V43.7092L48.2325 40.5703L50.1811 39.8561L52.5 39.0185L54.8189 39.8649L56.7675 40.5703L65.4084 43.7092Z" fill="#E0DFE5"/>
<path id="Vector_4" d="M53.708 45.8518L52.5 45.1906L39.6004 52.1914V53.5405L52.5 46.5537L65.4084 53.5405V52.1914L53.708 45.8518Z" fill="#C0C0CD"/>
<g id="Group_2">
<path id="Vector_5" d="M42.4642 46.5872C42.3091 46.5866 42.1592 46.5316 42.0405 46.4317C41.9219 46.3318 41.8422 46.1933 41.8153 46.0406C41.7884 45.8878 41.816 45.7305 41.8934 45.596C41.9708 45.4616 42.0929 45.3586 42.2385 45.3052L44.0496 44.6465C44.2127 44.5934 44.39 44.6058 44.5442 44.681C44.6983 44.7561 44.8172 44.8883 44.8758 45.0495C44.9344 45.2107 44.928 45.3883 44.8581 45.5449C44.7882 45.7015 44.6601 45.8249 44.501 45.8889L42.6908 46.5475C42.6182 46.5739 42.5415 46.5873 42.4642 46.5872ZM45.9409 45.1694C45.7853 45.1694 45.6348 45.1146 45.5156 45.0146C45.3965 44.9146 45.3164 44.7759 45.2895 44.6227C45.2625 44.4695 45.2904 44.3117 45.3683 44.1771C45.4461 44.0424 45.569 43.9395 45.7152 43.8865L47.5253 43.2278C47.6902 43.1678 47.8721 43.1758 48.0311 43.25C48.1901 43.3241 48.3131 43.4584 48.3731 43.6233C48.4331 43.7881 48.4251 43.9701 48.351 44.1291C48.2768 44.2881 48.1425 44.4111 47.9776 44.471L46.1666 45.1297C46.0942 45.1557 46.0178 45.1692 45.9409 45.1694ZM62.4731 46.5872C62.3959 46.5873 62.3192 46.5739 62.2465 46.5475L60.4355 45.8871C60.3517 45.8591 60.2745 45.8146 60.2082 45.7562C60.142 45.6978 60.0881 45.6268 60.0497 45.5472C60.0113 45.4677 59.9893 45.3813 59.9849 45.2931C59.9805 45.2049 59.9937 45.1167 60.024 45.0337C60.0542 44.9508 60.1007 44.8747 60.1608 44.81C60.2209 44.7453 60.2933 44.6933 60.3738 44.657C60.4543 44.6207 60.5413 44.601 60.6296 44.5989C60.7178 44.5968 60.8057 44.6124 60.8878 44.6447L62.6989 45.3034C62.8445 45.3569 62.9666 45.4598 63.044 45.5943C63.1214 45.7287 63.149 45.886 63.1221 46.0388C63.0952 46.1916 63.0155 46.33 62.8969 46.4299C62.7782 46.5298 62.6282 46.5849 62.4731 46.5854V46.5872ZM58.9965 45.1694C58.9192 45.1696 58.8425 45.1561 58.7699 45.1297L56.9597 44.471C56.8781 44.4413 56.8031 44.3959 56.7391 44.3372C56.675 44.2785 56.6232 44.2078 56.5864 44.1291C56.5497 44.0503 56.5289 43.9652 56.5251 43.8784C56.5213 43.7916 56.5346 43.7049 56.5643 43.6233C56.594 43.5416 56.6395 43.4667 56.6982 43.4026C56.7568 43.3386 56.8276 43.2867 56.9063 43.25C56.985 43.2132 57.0702 43.1924 57.157 43.1886C57.2438 43.1848 57.3304 43.1981 57.4121 43.2278L59.2222 43.8865C59.3684 43.9395 59.4913 44.0424 59.5691 44.1771C59.647 44.3117 59.6749 44.4695 59.6479 44.6227C59.621 44.7759 59.5409 44.9146 59.4217 45.0146C59.3026 45.1146 59.152 45.1694 58.9965 45.1694Z" fill="#404D61"/>
</g>
<path id="Vector_6" d="M52.5 46.4955L33.2079 56.9615L40.804 73H64.4447L71.8009 56.9615L52.5 46.4955Z" fill="#53677D"/>
<path id="Vector_7" d="M53.1613 52.1914V69.8126C52.7299 69.6833 52.2701 69.6833 51.8387 69.8126V52.1914C51.8387 52.016 51.9084 51.8478 52.0324 51.7238C52.1564 51.5998 52.3246 51.5301 52.5 51.5301C52.6754 51.5301 52.8436 51.5998 52.9676 51.7238C53.0916 51.8478 53.1613 52.016 53.1613 52.1914ZM53.1613 46.857V49.5286C53.1613 49.704 53.0916 49.8722 52.9676 49.9962C52.8436 50.1203 52.6754 50.1899 52.5 50.1899C52.3246 50.1899 52.1564 50.1203 52.0324 49.9962C51.9084 49.8722 51.8387 49.704 51.8387 49.5286V46.857L52.5 46.4955L53.1613 46.857Z" fill="#404D61"/>
<path id="Vector_8" d="M64.4447 73.0001L66.5661 68.371C66.4337 68.3534 66.3003 68.3434 66.1667 68.341C66.0586 68.3391 65.9506 68.3438 65.8431 68.3551C64.5504 68.5979 63.3559 69.2105 62.4044 70.1186C61.3834 70.9165 60.4196 71.6704 59.3369 71.6704C58.2541 71.6704 57.2939 70.9174 56.2747 70.1204C55.4718 69.4021 54.5373 68.8463 53.5228 68.4839C52.8573 68.2887 52.1498 68.2887 51.4843 68.4839C50.4698 68.8463 49.5353 69.4021 48.7324 70.1204C47.7131 70.9139 46.7503 71.6704 45.6702 71.6704C44.5901 71.6704 43.6246 70.9165 42.6045 70.1177C41.7243 69.3031 40.661 68.7124 39.5043 68.3957L39.358 68.3728C39.1854 68.3481 39.0112 68.3363 38.8369 68.3375C38.7593 68.3375 38.6861 68.349 38.6103 68.3543L40.8075 72.993L64.4447 73.0001Z" fill="#4B586F"/>
<path id="Vector_9" d="M66.5652 68.3763C66.4332 68.3573 66.3001 68.3466 66.1667 68.3445C64.8 68.3445 63.585 69.2395 62.4114 70.108C61.3631 70.8813 60.2794 71.6801 59.3333 71.6801C58.3873 71.6801 57.3054 70.8813 56.2552 70.108C55.0817 69.2421 53.8667 68.3445 52.5 68.3445C51.1333 68.3445 49.9183 69.2395 48.7447 70.108C47.6964 70.8813 46.6127 71.6801 45.6667 71.6801C44.7206 71.6801 43.6387 70.8813 42.5886 70.108C41.415 69.2421 40.2 68.3445 38.8333 68.3445C38.7566 68.3445 38.6825 68.3569 38.6076 68.3622L40.804 73H64.4447L66.5652 68.3763Z" fill="#4B586F"/>
<path id="Vector_10" d="M45.6667 73H59.3334C56.7411 73 54.4945 69.6671 52.5 69.6671C50.5056 69.6671 48.2589 73 45.6667 73ZM32 73H45.6667C43.0744 73 40.8278 69.6671 38.8333 69.6671C36.8389 69.6671 34.5923 73 32 73ZM66.1667 69.6671C64.1722 69.6671 61.9256 73 59.3334 73H73C70.4078 73 68.1611 69.6671 66.1667 69.6671Z" fill="#95CFE1"/>
</g>
</g>
<defs>
<radialGradient id="paint0_radial_1132_250" cx="0" cy="0" r="1" gradientUnits="userSpaceOnUse" gradientTransform="translate(52.5 52.5) rotate(90) scale(52.5)">
<stop stop-color="#54DE43" stop-opacity="0.2"/>
<stop offset="1" stop-color="#54DE43" stop-opacity="0.1"/>
</radialGradient>
</defs>
</svg>
