<svg width="105" height="105" viewBox="0 0 105 105" fill="none" xmlns="http://www.w3.org/2000/svg">
<g id="Group 30">
<g id="Rectangle 13">
<rect width="105" height="105" rx="5" fill="url(#paint0_radial_1132_299)"/>
<rect x="0.5" y="0.5" width="104" height="104" rx="4.5" stroke="white" stroke-opacity="0.1"/>
</g>
<g id="Group">
<path id="Vector" d="M43.4707 49.6914V44.5938H40.059V49.6914C40.059 50.6299 39.2953 51.3906 38.3526 51.3906H33.2352V54.7891H38.3526C39.2951 54.7891 40.059 55.5497 40.059 56.4883V61.5859H43.4707V56.4883C43.4707 55.5497 44.2344 54.7891 45.1766 54.7891H50.2941V51.3906H45.1766C44.2344 51.3906 43.4707 50.6299 43.4707 49.6914Z" fill="#D82F3D"/>
<path id="Vector_2" d="M74.7452 31H29.2548C25.806 31 23 33.7949 23 37.2305V68.9492C23 72.3848 25.806 75.1797 29.2548 75.1797H74.7452C78.194 75.1797 81 72.3848 81 68.9492V37.2305C81 33.7949 78.194 31 74.7452 31ZM53.706 56.4883C53.706 57.4268 52.9422 58.1875 52.0001 58.1875H46.8825V63.2852C46.8825 64.2237 46.1188 64.9844 45.1767 64.9844H38.353C37.411 64.9844 36.6472 64.2237 36.6472 63.2852V58.1875H31.5292C30.5871 58.1875 29.8233 57.4268 29.8233 56.4883V49.6914C29.8233 48.7529 30.5871 47.9922 31.5292 47.9922H36.6468V42.8945C36.6468 41.956 37.4105 41.1953 38.3526 41.1953H45.1765C46.1186 41.1953 46.8823 41.956 46.8823 42.8945V47.9922H52C52.942 47.9922 53.7059 48.7529 53.7059 49.6914L53.706 56.4883ZM69.059 64.9844H58.8235C57.8814 64.9844 57.1177 64.2237 57.1177 63.2852C57.1177 62.3466 57.8814 61.5859 58.8235 61.5859H69.0591C70.0012 61.5859 70.7649 62.3466 70.7649 63.2852C70.7649 64.2237 70.0012 64.9844 69.0591 64.9844H69.059ZM72.4708 58.1875H58.8234C57.8813 58.1875 57.1176 57.4268 57.1176 56.4883C57.1176 55.5497 57.8813 54.7891 58.8234 54.7891H72.4707C73.4128 54.7891 74.1766 55.5497 74.1766 56.4883C74.1766 57.4268 73.4128 58.1875 72.4707 58.1875H72.4708ZM72.4708 51.3906H58.8234C57.8813 51.3906 57.1176 50.6299 57.1176 49.6914C57.1176 48.7529 57.8813 47.9922 58.8234 47.9922H72.4707C73.4128 47.9922 74.1766 48.7529 74.1766 49.6914C74.1766 50.6299 73.4128 51.3906 72.4707 51.3906H72.4708ZM72.4708 44.5938H58.8234C57.8813 44.5938 57.1176 43.8331 57.1176 42.8945C57.1176 41.956 57.8813 41.1953 58.8234 41.1953H72.4707C73.4128 41.1953 74.1766 41.956 74.1766 42.8945C74.1766 43.8331 73.4128 44.5938 72.4707 44.5938H72.4708Z" fill="url(#paint1_linear_1132_299)"/>
</g>
<circle id="Ellipse 1" opacity="0.1" cx="92" cy="13" r="5" fill="white"/>
</g>
<defs>
<radialGradient id="paint0_radial_1132_299" cx="0" cy="0" r="1" gradientUnits="userSpaceOnUse" gradientTransform="translate(52.5 52.5) rotate(90) scale(52.5)">
<stop stop-color="white" stop-opacity="0.05"/>
<stop offset="1" stop-color="#999999" stop-opacity="0.05"/>
</radialGradient>
<linearGradient id="paint1_linear_1132_299" x1="23" y1="31" x2="81" y2="75" gradientUnits="userSpaceOnUse">
<stop stop-color="white"/>
<stop offset="1" stop-color="#999999"/>
</linearGradient>
</defs>
</svg>
